<svg xmlns="http://www.w3.org/2000/svg" xmlns:xlink="http://www.w3.org/1999/xlink" xmlns:s="https://github.com/nturley/netlistsvg" width="681" height="738">
  <style>svg {
    stroke:#000;
    fill:none;
  }
  text {
    fill:#000;
    stroke:none;
    font-size:10px;
    font-weight: bold;
    font-family: "Courier New", monospace;
  }
  .nodelabel {
    text-anchor: middle;
  }
  .inputPortLabel {
    text-anchor: end;
  }
  .splitjoinBody {
    fill:#000;
  }
  /* Buses multi-bit: línea más gruesa */
  line[class*=","] {
    stroke-width: 3;
  }</style>
  <g s:type="generic" transform="translate(324,387)" s:width="30" s:height="40" id="cell_$auto$opt_reduce.cc:126:opt_mux$22">
    <text x="15" y="-4" class="nodelabel cell_$auto$opt_reduce.cc:126:opt_mux$22" s:attribute="ref">$reduce_or</text>
    <rect width="30" height="20" s:generic="body" class="cell_$auto$opt_reduce.cc:126:opt_mux$22"/>
    <g transform="translate(0,10)" s:x="0" s:y="10" s:pid="in0" id="port_$auto$opt_reduce.cc:126:opt_mux$22~A">
      <text x="-3" y="-4" class="inputPortLabel cell_$auto$opt_reduce.cc:126:opt_mux$22">A</text>
    </g>
    <g transform="translate(30,10)" s:x="30" s:y="10" s:pid="out0" id="port_$auto$opt_reduce.cc:126:opt_mux$22~Y">
      <text x="5" y="-4" style="fill:#000; stroke:none" class="cell_$auto$opt_reduce.cc:126:opt_mux$22">Y</text>
    </g>
  </g>
  <g s:type="$adff" s:width="40" s:height="57" id="cell_$procdff$21" transform="translate(77,498)">
    <s:alias val="$adff"/>
    <s:alias val="$adffe"/>
    <rect class="netlistsvg_cell" x="0" y="0" width="40" height="50" rx="2" ry="2" fill="#81C784"/>
    <circle cx="20" cy="53" r="2.5" fill="#ffffff" stroke="#000000" stroke-width="1.5"/>
    <path d="M 0 22 L 6 26 L 0 30" fill="none" stroke="#000000" stroke-width="1.5"/>
    <text class="netlistsvg_text" x="20" y="8" text-anchor="middle" font-size="6px" font-weight="bold">DFF</text>
    <text class="netlistsvg_text" x="5" y="15" font-size="6px">D</text>
    <text class="netlistsvg_text" x="8" y="28" font-size="6px">CLK</text>
    <text class="netlistsvg_text" x="20" y="46" text-anchor="middle" font-size="5px">ARST</text>
    <text class="netlistsvg_text" x="34" y="15" text-anchor="end" font-size="6px">Q</text>
    <g s:x="0" s:y="12" s:pid="D"/>
    <g s:x="0" s:y="26" s:pid="CLK"/>
    <g s:x="0" s:y="26" s:pid="C"/>
    <g s:x="20" s:y="57" s:pid="ARST"/>
    <g s:x="20" s:y="57" s:pid="CLR"/>
    <g s:x="40" s:y="12" s:pid="Q"/>
  </g>
  <g s:type="mux" transform="translate(568,675)" s:width="20" s:height="40" id="cell_$procmux$12">
    <s:alias val="$pmux"/>
    <s:alias val="$mux"/>
    <s:alias val="$_MUX_"/>
    <path d="M0,0 L20,10 L20,30 L0,40 Z" class="cell_$procmux$12" fill="#4A90D9"/>
    <g s:x="0" s:y="10" s:pid="A"/>
    <g s:x="0" s:y="30" s:pid="B"/>
    <g s:x="10" s:y="35" s:pid="S"/>
    <g s:x="20" s:y="20" s:pid="Y"/>
  </g>
  <g s:type="mux" transform="translate(623,217)" s:width="20" s:height="40" id="cell_$procmux$15">
    <s:alias val="$pmux"/>
    <s:alias val="$mux"/>
    <s:alias val="$_MUX_"/>
    <path d="M0,0 L20,10 L20,30 L0,40 Z" class="cell_$procmux$15" fill="#4A90D9"/>
    <g s:x="0" s:y="10" s:pid="A"/>
    <g s:x="0" s:y="30" s:pid="B"/>
    <g s:x="10" s:y="35" s:pid="S"/>
    <g s:x="20" s:y="20" s:pid="Y"/>
  </g>
  <g s:type="eq" transform="translate(157,395)" s:width="25" s:height="25" id="cell_$procmux$16_CMP0">
    <s:alias val="$eq"/>
    <circle r="12.5" cx="12.5" cy="12.5" class="cell_$procmux$16_CMP0" fill="#4A90D9"/>
    <line x1="7.5" x2="17.5" y1="10" y2="10" class="cell_$procmux$16_CMP0"/>
    <line x1="7.5" x2="17.5" y1="15" y2="15" class="cell_$procmux$16_CMP0"/>
    <g s:x="3" s:y="5" s:pid="A"/>
    <g s:x="3" s:y="20" s:pid="B"/>
    <g s:x="25" s:y="12.5" s:pid="Y"/>
  </g>
  <g s:type="eq" transform="translate(381.3333333333333,445)" s:width="25" s:height="25" id="cell_$procmux$17_CMP0">
    <s:alias val="$eq"/>
    <circle r="12.5" cx="12.5" cy="12.5" class="cell_$procmux$17_CMP0" fill="#4A90D9"/>
    <line x1="7.5" x2="17.5" y1="10" y2="10" class="cell_$procmux$17_CMP0"/>
    <line x1="7.5" x2="17.5" y1="15" y2="15" class="cell_$procmux$17_CMP0"/>
    <g s:x="3" s:y="5" s:pid="A"/>
    <g s:x="3" s:y="20" s:pid="B"/>
    <g s:x="25" s:y="12.5" s:pid="Y"/>
  </g>
  <g s:type="eq" transform="translate(381.3333333333333,505)" s:width="25" s:height="25" id="cell_$procmux$18_CMP0">
    <s:alias val="$eq"/>
    <circle r="12.5" cx="12.5" cy="12.5" class="cell_$procmux$18_CMP0" fill="#4A90D9"/>
    <line x1="7.5" x2="17.5" y1="10" y2="10" class="cell_$procmux$18_CMP0"/>
    <line x1="7.5" x2="17.5" y1="15" y2="15" class="cell_$procmux$18_CMP0"/>
    <g s:x="3" s:y="5" s:pid="A"/>
    <g s:x="3" s:y="20" s:pid="B"/>
    <g s:x="25" s:y="12.5" s:pid="Y"/>
  </g>
  <g s:type="eq" transform="translate(157,335)" s:width="25" s:height="25" id="cell_$procmux$19_CMP0">
    <s:alias val="$eq"/>
    <circle r="12.5" cx="12.5" cy="12.5" class="cell_$procmux$19_CMP0" fill="#4A90D9"/>
    <line x1="7.5" x2="17.5" y1="10" y2="10" class="cell_$procmux$19_CMP0"/>
    <line x1="7.5" x2="17.5" y1="15" y2="15" class="cell_$procmux$19_CMP0"/>
    <g s:x="3" s:y="5" s:pid="A"/>
    <g s:x="3" s:y="20" s:pid="B"/>
    <g s:x="25" s:y="12.5" s:pid="Y"/>
  </g>
  <g s:type="not" transform="translate(407.5,565)" s:width="30" s:height="20" id="cell_$procmux$20_CMP0">
    <s:alias val="$_NOT_"/>
    <s:alias val="$not"/>
    <s:alias val="$logic_not"/>
    <path d="M0,0 L0,20 L20,10 Z" class="cell_$procmux$20_CMP0" fill="#4A90D9"/>
    <circle cx="23" cy="10" r="3" class="cell_$procmux$20_CMP0" fill="white"/>
    <g s:x="0" s:y="10" s:pid="A"/>
    <g s:x="25" s:y="10" s:pid="Y"/>
  </g>
  <g s:type="mux" transform="translate(383,317)" s:width="20" s:height="40" id="cell_$ternary$design.sv:28$4">
    <s:alias val="$pmux"/>
    <s:alias val="$mux"/>
    <s:alias val="$_MUX_"/>
    <path d="M0,0 L20,10 L20,30 L0,40 Z" class="cell_$ternary$design.sv:28$4" fill="#4A90D9"/>
    <g s:x="0" s:y="10" s:pid="A"/>
    <g s:x="0" s:y="30" s:pid="B"/>
    <g s:x="10" s:y="35" s:pid="S"/>
    <g s:x="20" s:y="20" s:pid="Y"/>
  </g>
  <g s:type="mux" transform="translate(383,257)" s:width="20" s:height="40" id="cell_$ternary$design.sv:30$6">
    <s:alias val="$pmux"/>
    <s:alias val="$mux"/>
    <s:alias val="$_MUX_"/>
    <path d="M0,0 L20,10 L20,30 L0,40 Z" class="cell_$ternary$design.sv:30$6" fill="#4A90D9"/>
    <g s:x="0" s:y="10" s:pid="A"/>
    <g s:x="0" s:y="30" s:pid="B"/>
    <g s:x="10" s:y="35" s:pid="S"/>
    <g s:x="20" s:y="20" s:pid="Y"/>
  </g>
  <g s:type="mux" transform="translate(383,161)" s:width="20" s:height="40" id="cell_$ternary$design.sv:31$7">
    <s:alias val="$pmux"/>
    <s:alias val="$mux"/>
    <s:alias val="$_MUX_"/>
    <path d="M0,0 L20,10 L20,30 L0,40 Z" class="cell_$ternary$design.sv:31$7" fill="#4A90D9"/>
    <g s:x="0" s:y="10" s:pid="A"/>
    <g s:x="0" s:y="30" s:pid="B"/>
    <g s:x="10" s:y="35" s:pid="S"/>
    <g s:x="20" s:y="20" s:pid="Y"/>
  </g>
  <g s:type="mux" transform="translate(383,34)" s:width="20" s:height="40" id="cell_$ternary$design.sv:32$8">
    <s:alias val="$pmux"/>
    <s:alias val="$mux"/>
    <s:alias val="$_MUX_"/>
    <path d="M0,0 L20,10 L20,30 L0,40 Z" class="cell_$ternary$design.sv:32$8" fill="#4A90D9"/>
    <g s:x="0" s:y="10" s:pid="A"/>
    <g s:x="0" s:y="30" s:pid="B"/>
    <g s:x="10" s:y="35" s:pid="S"/>
    <g s:x="20" s:y="20" s:pid="Y"/>
  </g>
  <g s:type="inputExt" transform="translate(12,514)" s:width="30" s:height="20" id="cell_clk">
    <text x="15" y="-4" class="nodelabel cell_clk" s:attribute="ref">clk</text>
    <s:alias val="$_inputExt_"/>
    <path d="M0,0 L0,20 L15,20 L30,10 L15,0 Z" class="cell_clk"/>
    <g s:x="28" s:y="10" s:pid="Y"/>
  </g>
  <g s:type="inputExt" transform="translate(12,580)" s:width="30" s:height="20" id="cell_rst">
    <text x="15" y="-4" class="nodelabel cell_rst" s:attribute="ref">rst</text>
    <s:alias val="$_inputExt_"/>
    <path d="M0,0 L0,20 L15,20 L30,10 L15,0 Z" class="cell_rst"/>
    <g s:x="28" s:y="10" s:pid="Y"/>
  </g>
  <g s:type="inputExt" transform="translate(217,226)" s:width="30" s:height="20" id="cell_din">
    <text x="15" y="-4" class="nodelabel cell_din" s:attribute="ref">din</text>
    <s:alias val="$_inputExt_"/>
    <path d="M0,0 L0,20 L15,20 L30,10 L15,0 Z" class="cell_din"/>
    <g s:x="28" s:y="10" s:pid="Y"/>
  </g>
  <g s:type="outputExt" transform="translate(623,685)" s:width="30" s:height="20" id="cell_detect">
    <text x="15" y="-4" class="nodelabel cell_detect" s:attribute="ref">detect</text>
    <s:alias val="$_outputExt_"/>
    <path d="M30,0 L30,20 L15,20 L0,10 L15,0 Z" class="cell_detect"/>
    <g s:x="0" s:y="10" s:pid="A"/>
  </g>
  <g s:type="constant" transform="translate(324,630)" s:width="30" s:height="20" id="cell_0">
    <text x="15" y="-4" class="nodelabel cell_0" s:attribute="ref">0</text>
    <s:alias val="$_constant_"/>
    <rect width="30" height="20" class="cell_0"/>
    <g s:x="30" s:y="10" s:pid="Y"/>
  </g>
  <g s:type="constant" transform="translate(324,695)" s:width="30" s:height="20" id="cell_1">
    <text x="15" y="-4" class="nodelabel cell_1" s:attribute="ref">1</text>
    <s:alias val="$_constant_"/>
    <rect width="30" height="20" class="cell_1"/>
    <g s:x="30" s:y="10" s:pid="Y"/>
  </g>
  <g s:type="constant" transform="translate(217,96)" s:width="30" s:height="20" id="cell_000">
    <text x="15" y="-4" class="nodelabel cell_000" s:attribute="ref">000</text>
    <s:alias val="$_constant_"/>
    <rect width="30" height="20" class="cell_000"/>
    <g s:x="30" s:y="10" s:pid="Y"/>
  </g>
  <g s:type="constant" transform="translate(87,405)" s:width="30" s:height="20" id="cell_100">
    <text x="15" y="-4" class="nodelabel cell_100" s:attribute="ref">100</text>
    <s:alias val="$_constant_"/>
    <rect width="30" height="20" class="cell_100"/>
    <g s:x="30" s:y="10" s:pid="Y"/>
  </g>
  <g s:type="constant" transform="translate(217,277)" s:width="30" s:height="20" id="cell_011">
    <text x="15" y="-4" class="nodelabel cell_011" s:attribute="ref">011</text>
    <s:alias val="$_constant_"/>
    <rect width="30" height="20" class="cell_011"/>
    <g s:x="30" s:y="10" s:pid="Y"/>
  </g>
  <g s:type="constant" transform="translate(217,161)" s:width="30" s:height="20" id="cell_010">
    <text x="15" y="-4" class="nodelabel cell_010" s:attribute="ref">010</text>
    <s:alias val="$_constant_"/>
    <rect width="30" height="20" class="cell_010"/>
    <g s:x="30" s:y="10" s:pid="Y"/>
  </g>
  <g s:type="constant" transform="translate(87,246)" s:width="30" s:height="20" id="cell_001">
    <text x="15" y="-4" class="nodelabel cell_001" s:attribute="ref">001</text>
    <s:alias val="$_constant_"/>
    <rect width="30" height="20" class="cell_001"/>
    <g s:x="30" s:y="10" s:pid="Y"/>
  </g>
  <g s:type="join" transform="translate(228,377)" s:width="4" s:height="40" id="cell_$join$,6,7,">
    <rect width="5" height="40" class="splitjoinBody" s:generic="body"/>
    <s:alias val="$_join_"/>
    <g s:x="5" s:y="20" s:pid="out"/>
    <g transform="translate(0,10)" s:x="0" s:y="10" s:pid="in0">
      <text x="-3" y="-4" class="inputPortLabel">0</text>
    </g>
    <g transform="translate(0,30)" s:x="0" s:y="10" s:pid="in0">
      <text x="-3" y="-4" class="inputPortLabel">1</text>
    </g>
  </g>
  <g s:type="join" transform="translate(582,226.5)" s:width="4" s:height="40" id="cell_$join$,15,16,17,18,19,20,21,22,23,24,25,26,">
    <rect width="5" height="80" class="splitjoinBody" s:generic="body"/>
    <s:alias val="$_join_"/>
    <g s:x="5" s:y="20" s:pid="out"/>
    <g transform="translate(0,10)" s:x="0" s:y="10" s:pid="in0">
      <text x="-3" y="-4" class="inputPortLabel">0:2</text>
    </g>
    <g transform="translate(0,30)" s:x="0" s:y="10" s:pid="in0">
      <text x="-3" y="-4" class="inputPortLabel">3:5</text>
    </g>
    <g transform="translate(0,50)" s:x="0" s:y="10" s:pid="in0">
      <text x="-3" y="-4" class="inputPortLabel">6:8</text>
    </g>
    <g transform="translate(0,70)" s:x="0" s:y="10" s:pid="in0">
      <text x="-3" y="-4" class="inputPortLabel">9:11</text>
    </g>
  </g>
  <g s:type="join" transform="translate(577.75,467)" s:width="4" s:height="40" id="cell_$join$,8,27,28,29,">
    <rect width="5" height="80" class="splitjoinBody" s:generic="body"/>
    <s:alias val="$_join_"/>
    <g s:x="5" s:y="20" s:pid="out"/>
    <g transform="translate(0,10)" s:x="0" s:y="10" s:pid="in0">
      <text x="-3" y="-4" class="inputPortLabel">0</text>
    </g>
    <g transform="translate(0,30)" s:x="0" s:y="10" s:pid="in0">
      <text x="-3" y="-4" class="inputPortLabel">1</text>
    </g>
    <g transform="translate(0,50)" s:x="0" s:y="10" s:pid="in0">
      <text x="-3" y="-4" class="inputPortLabel">2</text>
    </g>
    <g transform="translate(0,70)" s:x="0" s:y="10" s:pid="in0">
      <text x="-3" y="-4" class="inputPortLabel">3</text>
    </g>
  </g>
  <line x1="234" x2="324" y1="397.5" y2="397.5" class="net_6,7"/>
  <line x1="40" x2="97" y1="590" y2="590" class="net_3"/>
  <line x1="97" x2="97" y1="590" y2="555" class="net_3"/>
  <line x1="40" x2="77" y1="524" y2="524" class="net_2"/>
  <line x1="643" x2="669" y1="237" y2="237" class="net_9,10,11"/>
  <line x1="669" x2="669" y1="237" y2="12" class="net_9,10,11"/>
  <line x1="669" x2="52" y1="12" y2="12" class="net_9,10,11"/>
  <line x1="52" x2="52" y1="12" y2="510" class="net_9,10,11"/>
  <line x1="52" x2="77" y1="510" y2="510" class="net_9,10,11"/>
  <line x1="354" x2="538" y1="640" y2="640" class="net_30"/>
  <line x1="538" x2="538" y1="640" y2="685" class="net_30"/>
  <line x1="538" x2="568" y1="685" y2="685" class="net_30"/>
  <line x1="354" x2="568" y1="705" y2="705" class="net_31"/>
  <line x1="182" x2="192" y1="407.5" y2="407.5" class="net_7"/>
  <line x1="192" x2="192" y1="407.5" y2="725" class="net_7"/>
  <line x1="192" x2="578" y1="725" y2="725" class="net_7"/>
  <circle cx="192" cy="407.5" r="2" style="fill:#000" class="net_7"/>
  <line x1="578" x2="578" y1="725" y2="710" class="net_7"/>
  <line x1="182" x2="228" y1="407.5" y2="407.5" class="net_7"/>
  <line x1="247" x2="287" y1="106" y2="106" class="net_32,33,34"/>
  <line x1="287" x2="287" y1="106" y2="23" class="net_32,33,34"/>
  <line x1="287" x2="598" y1="23" y2="23" class="net_32,33,34"/>
  <line x1="598" x2="598" y1="23" y2="227" class="net_32,33,34"/>
  <circle cx="287" cy="106" r="2" style="fill:#000" class="net_32,33,34"/>
  <line x1="598" x2="623" y1="227" y2="227" class="net_32,33,34"/>
  <line x1="247" x2="287" y1="106" y2="106" class="net_32,33,34"/>
  <line x1="287" x2="287" y1="106" y2="327" class="net_32,33,34"/>
  <line x1="287" x2="383" y1="327" y2="327" class="net_32,33,34"/>
  <line x1="247" x2="287" y1="106" y2="106" class="net_32,33,34"/>
  <line x1="287" x2="287" y1="106" y2="267" class="net_32,33,34"/>
  <circle cx="287" cy="267" r="2" style="fill:#000" class="net_32,33,34"/>
  <line x1="287" x2="383" y1="267" y2="267" class="net_32,33,34"/>
  <line x1="588" x2="623" y1="247" y2="247" class="net_15,16,17,18,19,20,21,22,23,24,25,26"/>
  <line x1="583.75" x2="633" y1="487.5" y2="487.5" class="net_8,27,28,29"/>
  <line x1="633" x2="633" y1="487.5" y2="252" class="net_8,27,28,29"/>
  <line x1="117" x2="137" y1="510" y2="510" class="net_12,13,14"/>
  <line x1="137" x2="137" y1="510" y2="400" class="net_12,13,14"/>
  <circle cx="137" cy="510" r="2" style="fill:#000" class="net_12,13,14"/>
  <circle cx="137" cy="400" r="2" style="fill:#000" class="net_12,13,14"/>
  <line x1="137" x2="160" y1="400" y2="400" class="net_12,13,14"/>
  <line x1="117" x2="277" y1="510" y2="510" class="net_12,13,14"/>
  <line x1="277" x2="277" y1="510" y2="450" class="net_12,13,14"/>
  <circle cx="277" cy="510" r="2" style="fill:#000" class="net_12,13,14"/>
  <line x1="277" x2="384.3333333333333" y1="450" y2="450" class="net_12,13,14"/>
  <line x1="117" x2="384.3333333333333" y1="510" y2="510" class="net_12,13,14"/>
  <line x1="117" x2="137" y1="510" y2="510" class="net_12,13,14"/>
  <line x1="137" x2="137" y1="510" y2="340" class="net_12,13,14"/>
  <line x1="137" x2="160" y1="340" y2="340" class="net_12,13,14"/>
  <line x1="117" x2="277" y1="510" y2="510" class="net_12,13,14"/>
  <line x1="277" x2="277" y1="510" y2="575" class="net_12,13,14"/>
  <line x1="277" x2="407.5" y1="575" y2="575" class="net_12,13,14"/>
  <line x1="117" x2="160" y1="415" y2="415" class="net_35,36,37"/>
  <line x1="117" x2="127" y1="415" y2="415" class="net_35,36,37"/>
  <line x1="127" x2="127" y1="415" y2="75" class="net_35,36,37"/>
  <line x1="127" x2="307" y1="75" y2="75" class="net_35,36,37"/>
  <line x1="307" x2="307" y1="75" y2="191" class="net_35,36,37"/>
  <circle cx="127" cy="415" r="2" style="fill:#000" class="net_35,36,37"/>
  <line x1="307" x2="383" y1="191" y2="191" class="net_35,36,37"/>
  <line x1="247" x2="267" y1="287" y2="287" class="net_38,39,40"/>
  <line x1="267" x2="267" y1="287" y2="465" class="net_38,39,40"/>
  <circle cx="267" cy="287" r="2" style="fill:#000" class="net_38,39,40"/>
  <line x1="267" x2="384.3333333333333" y1="465" y2="465" class="net_38,39,40"/>
  <line x1="247" x2="383" y1="287" y2="287" class="net_38,39,40"/>
  <line x1="247" x2="257" y1="171" y2="171" class="net_41,42,43"/>
  <line x1="257" x2="257" y1="171" y2="525" class="net_41,42,43"/>
  <circle cx="257" cy="171" r="2" style="fill:#000" class="net_41,42,43"/>
  <line x1="257" x2="384.3333333333333" y1="525" y2="525" class="net_41,42,43"/>
  <line x1="247" x2="383" y1="171" y2="171" class="net_41,42,43"/>
  <line x1="247" x2="257" y1="171" y2="171" class="net_41,42,43"/>
  <line x1="257" x2="257" y1="171" y2="44" class="net_41,42,43"/>
  <line x1="257" x2="383" y1="44" y2="44" class="net_41,42,43"/>
  <line x1="117" x2="147" y1="256" y2="256" class="net_44,45,46"/>
  <line x1="147" x2="147" y1="256" y2="355" class="net_44,45,46"/>
  <circle cx="147" cy="256" r="2" style="fill:#000" class="net_44,45,46"/>
  <line x1="147" x2="160" y1="355" y2="355" class="net_44,45,46"/>
  <line x1="117" x2="277" y1="256" y2="256" class="net_44,45,46"/>
  <line x1="277" x2="277" y1="256" y2="347" class="net_44,45,46"/>
  <line x1="277" x2="383" y1="347" y2="347" class="net_44,45,46"/>
  <line x1="117" x2="147" y1="256" y2="256" class="net_44,45,46"/>
  <line x1="147" x2="147" y1="256" y2="64" class="net_44,45,46"/>
  <line x1="147" x2="383" y1="64" y2="64" class="net_44,45,46"/>
  <line x1="245" x2="297" y1="236" y2="236" class="net_4"/>
  <line x1="297" x2="297" y1="236" y2="367" class="net_4"/>
  <line x1="297" x2="393" y1="367" y2="367" class="net_4"/>
  <circle cx="297" cy="236" r="2" style="fill:#000" class="net_4"/>
  <line x1="393" x2="393" y1="367" y2="352" class="net_4"/>
  <line x1="245" x2="297" y1="236" y2="236" class="net_4"/>
  <line x1="297" x2="297" y1="236" y2="307" class="net_4"/>
  <line x1="297" x2="393" y1="307" y2="307" class="net_4"/>
  <circle cx="297" cy="307" r="2" style="fill:#000" class="net_4"/>
  <line x1="393" x2="393" y1="307" y2="292" class="net_4"/>
  <line x1="245" x2="393" y1="236" y2="236" class="net_4"/>
  <line x1="393" x2="393" y1="236" y2="196" class="net_4"/>
  <line x1="245" x2="297" y1="236" y2="236" class="net_4"/>
  <line x1="297" x2="297" y1="236" y2="151" class="net_4"/>
  <line x1="297" x2="393" y1="151" y2="151" class="net_4"/>
  <line x1="393" x2="393" y1="151" y2="69" class="net_4"/>
  <line x1="588" x2="623" y1="695" y2="695" class="net_5"/>
  <line x1="182" x2="192" y1="347.5" y2="347.5" class="net_6"/>
  <line x1="192" x2="192" y1="347.5" y2="387.5" class="net_6"/>
  <line x1="192" x2="228" y1="387.5" y2="387.5" class="net_6"/>
  <line x1="403" x2="548" y1="54" y2="54" class="net_15,16,17"/>
  <line x1="548" x2="548" y1="54" y2="237" class="net_15,16,17"/>
  <line x1="548" x2="582" y1="237" y2="237" class="net_15,16,17"/>
  <line x1="403" x2="538" y1="181" y2="181" class="net_18,19,20"/>
  <line x1="538" x2="538" y1="181" y2="257" class="net_18,19,20"/>
  <line x1="538" x2="582" y1="257" y2="257" class="net_18,19,20"/>
  <line x1="403" x2="582" y1="277" y2="277" class="net_21,22,23"/>
  <line x1="403" x2="582.5" y1="337" y2="337" class="net_24,25,26"/>
  <line x1="582.5" x2="582.5" y1="337" y2="297.5" class="net_24,25,26"/>
  <line x1="355" x2="548" y1="397.5" y2="397.5" class="net_8"/>
  <line x1="548" x2="548" y1="397.5" y2="477.5" class="net_8"/>
  <line x1="548" x2="577.75" y1="477.5" y2="477.5" class="net_8"/>
  <line x1="406.3333333333333" x2="538" y1="457.5" y2="457.5" class="net_27"/>
  <line x1="538" x2="538" y1="457.5" y2="497.5" class="net_27"/>
  <line x1="538" x2="577.75" y1="497.5" y2="497.5" class="net_27"/>
  <line x1="406.3333333333333" x2="577.75" y1="517.5" y2="517.5" class="net_28"/>
  <line x1="432.5" x2="578.25" y1="575" y2="575" class="net_29"/>
  <line x1="578.25" x2="578.25" y1="575" y2="538" class="net_29"/>
</svg>
