<svg xmlns="http://www.w3.org/2000/svg" xmlns:xlink="http://www.w3.org/1999/xlink" xmlns:s="https://github.com/nturley/netlistsvg" width="604" height="318">
  <style>svg {
    stroke:#000;
    fill:none;
  }
  text {
    fill:#000;
    stroke:none;
    font-size:10px;
    font-weight: bold;
    font-family: "Courier New", monospace;
  }
  .nodelabel {
    text-anchor: middle;
  }
  .inputPortLabel {
    text-anchor: end;
  }
  .splitjoinBody {
    fill:#000;
  }</style>
  <g s:type="not" transform="translate(215.5,64)" s:width="30" s:height="20" id="cell_$abc$146$auto$blifparse.cc:396:parse_blif$147">
    <s:alias val="$_NOT_"/>
    <s:alias val="$not"/>
    <s:alias val="$logic_not"/>
    <path d="M0,0 L0,20 L20,10 Z" class="cell_$abc$146$auto$blifparse.cc:396:parse_blif$147"/>
    <circle cx="23" cy="10" r="3" class="cell_$abc$146$auto$blifparse.cc:396:parse_blif$147"/>
    <g s:x="0" s:y="10" s:pid="A"/>
    <g s:x="25" s:y="10" s:pid="Y"/>
  </g>
  <g s:type="and" transform="translate(79,104)" s:width="30" s:height="25" id="cell_$abc$146$auto$blifparse.cc:396:parse_blif$148">
    <s:alias val="$and"/>
    <s:alias val="$logic_and"/>
    <s:alias val="$_AND_"/>
    <path d="M0,0 L0,25 L15,25 A15 12.5 0 0 0 15,0 Z" class="cell_$abc$146$auto$blifparse.cc:396:parse_blif$148"/>
    <g s:x="0" s:y="5" s:pid="A"/>
    <g s:x="0" s:y="20" s:pid="B"/>
    <g s:x="30" s:y="12.5" s:pid="Y"/>
  </g>
  <g s:type="and" transform="translate(144,150)" s:width="30" s:height="25" id="cell_$abc$146$auto$blifparse.cc:396:parse_blif$149">
    <s:alias val="$and"/>
    <s:alias val="$logic_and"/>
    <s:alias val="$_AND_"/>
    <path d="M0,0 L0,25 L15,25 A15 12.5 0 0 0 15,0 Z" class="cell_$abc$146$auto$blifparse.cc:396:parse_blif$149"/>
    <g s:x="0" s:y="5" s:pid="A"/>
    <g s:x="0" s:y="20" s:pid="B"/>
    <g s:x="30" s:y="12.5" s:pid="Y"/>
  </g>
  <g s:type="reduce_xor" transform="translate(214,240)" s:width="33" s:height="25" id="cell_$abc$146$auto$blifparse.cc:396:parse_blif$150">
    <s:alias val="$xor"/>
    <s:alias val="$reduce_xor"/>
    <s:alias val="$_XOR_"/>
    <path d="M3,0 A30 25 0 0 1 3,25 A30 25 0 0 0 33,12.5 A30 25 0 0 0 3,0" class="cell_$abc$146$auto$blifparse.cc:396:parse_blif$150"/>
    <path d="M0,0 A30 25 0 0 1 0,25" class="cell_$abc$146$auto$blifparse.cc:396:parse_blif$150"/>
    <g s:x="3" s:y="5" s:pid="A"/>
    <g s:x="3" s:y="20" s:pid="B"/>
    <g s:x="33" s:y="12.5" s:pid="Y"/>
  </g>
  <g s:type="reduce_xor" transform="translate(214,119)" s:width="33" s:height="25" id="cell_$abc$146$auto$blifparse.cc:396:parse_blif$151">
    <s:alias val="$xor"/>
    <s:alias val="$reduce_xor"/>
    <s:alias val="$_XOR_"/>
    <path d="M3,0 A30 25 0 0 1 3,25 A30 25 0 0 0 33,12.5 A30 25 0 0 0 3,0" class="cell_$abc$146$auto$blifparse.cc:396:parse_blif$151"/>
    <path d="M0,0 A30 25 0 0 1 0,25" class="cell_$abc$146$auto$blifparse.cc:396:parse_blif$151"/>
    <g s:x="3" s:y="5" s:pid="A"/>
    <g s:x="3" s:y="20" s:pid="B"/>
    <g s:x="33" s:y="12.5" s:pid="Y"/>
  </g>
  <g s:type="reduce_xor" transform="translate(214,180)" s:width="33" s:height="25" id="cell_$abc$146$auto$blifparse.cc:396:parse_blif$152">
    <s:alias val="$xor"/>
    <s:alias val="$reduce_xor"/>
    <s:alias val="$_XOR_"/>
    <path d="M3,0 A30 25 0 0 1 3,25 A30 25 0 0 0 33,12.5 A30 25 0 0 0 3,0" class="cell_$abc$146$auto$blifparse.cc:396:parse_blif$152"/>
    <path d="M0,0 A30 25 0 0 1 0,25" class="cell_$abc$146$auto$blifparse.cc:396:parse_blif$152"/>
    <g s:x="3" s:y="5" s:pid="A"/>
    <g s:x="3" s:y="20" s:pid="B"/>
    <g s:x="33" s:y="12.5" s:pid="Y"/>
  </g>
  <g s:type="generic" transform="translate(383,212)" s:width="30" s:height="40" id="cell_$auto$ff.cc:266:slice$11">
    <text x="15" y="-4" class="nodelabel cell_$auto$ff.cc:266:slice$11" s:attribute="ref">$adffe</text>
    <rect width="30" height="80" s:generic="body" class="cell_$auto$ff.cc:266:slice$11"/>
    <g transform="translate(0,10)" s:x="0" s:y="10" s:pid="in0" id="port_$auto$ff.cc:266:slice$11~ARST">
      <text x="-3" y="-4" class="inputPortLabel cell_$auto$ff.cc:266:slice$11">ARST</text>
    </g>
    <g transform="translate(0,30)" s:x="0" s:y="10" s:pid="in0" id="port_$auto$ff.cc:266:slice$11~CLK">
      <text x="-3" y="-4" class="inputPortLabel cell_$auto$ff.cc:266:slice$11">CLK</text>
    </g>
    <g transform="translate(0,50)" s:x="0" s:y="10" s:pid="in0" id="port_$auto$ff.cc:266:slice$11~D">
      <text x="-3" y="-4" class="inputPortLabel cell_$auto$ff.cc:266:slice$11">D</text>
    </g>
    <g transform="translate(0,70)" s:x="0" s:y="10" s:pid="in0" id="port_$auto$ff.cc:266:slice$11~EN">
      <text x="-3" y="-4" class="inputPortLabel cell_$auto$ff.cc:266:slice$11">EN</text>
    </g>
    <g transform="translate(30,10)" s:x="30" s:y="10" s:pid="out0" id="port_$auto$ff.cc:266:slice$11~Q">
      <text x="5" y="-4" style="fill:#000; stroke:none" class="cell_$auto$ff.cc:266:slice$11">Q</text>
    </g>
  </g>
  <g s:type="inputExt" transform="translate(282,87)" s:width="30" s:height="20" id="cell_clk">
    <text x="15" y="-4" class="nodelabel cell_clk" s:attribute="ref">clk</text>
    <s:alias val="$_inputExt_"/>
    <path d="M0,0 L0,20 L15,20 L30,10 L15,0 Z" class="cell_clk"/>
    <g s:x="28" s:y="10" s:pid="Y"/>
  </g>
  <g s:type="inputExt" transform="translate(282,22)" s:width="30" s:height="20" id="cell_rst_n">
    <text x="15" y="-4" class="nodelabel cell_rst_n" s:attribute="ref">rst_n</text>
    <s:alias val="$_inputExt_"/>
    <path d="M0,0 L0,20 L15,20 L30,10 L15,0 Z" class="cell_rst_n"/>
    <g s:x="28" s:y="10" s:pid="Y"/>
  </g>
  <g s:type="inputExt" transform="translate(282,272.5)" s:width="30" s:height="20" id="cell_enable">
    <text x="15" y="-4" class="nodelabel cell_enable" s:attribute="ref">enable</text>
    <s:alias val="$_inputExt_"/>
    <path d="M0,0 L0,20 L15,20 L30,10 L15,0 Z" class="cell_enable"/>
    <g s:x="28" s:y="10" s:pid="Y"/>
  </g>
  <g s:type="outputExt" transform="translate(562,212.5)" s:width="30" s:height="20" id="cell_count">
    <text x="15" y="-4" class="nodelabel cell_count" s:attribute="ref">count</text>
    <s:alias val="$_outputExt_"/>
    <path d="M30,0 L30,20 L15,20 L0,10 L15,0 Z" class="cell_count"/>
    <g s:x="0" s:y="10" s:pid="A"/>
  </g>
  <g s:type="join" transform="translate(293.5,142)" s:width="4" s:height="40" id="cell_$join$,9,13,14,12,">
    <rect width="5" height="80" class="splitjoinBody" s:generic="body"/>
    <s:alias val="$_join_"/>
    <g s:x="5" s:y="20" s:pid="out"/>
    <g transform="translate(0,10)" s:x="0" s:y="10" s:pid="in0">
      <text x="-3" y="-4" class="inputPortLabel">0</text>
    </g>
    <g transform="translate(0,30)" s:x="0" s:y="10" s:pid="in0">
      <text x="-3" y="-4" class="inputPortLabel">1</text>
    </g>
    <g transform="translate(0,50)" s:x="0" s:y="10" s:pid="in0">
      <text x="-3" y="-4" class="inputPortLabel">2</text>
    </g>
    <g transform="translate(0,70)" s:x="0" s:y="10" s:pid="in0">
      <text x="-3" y="-4" class="inputPortLabel">3</text>
    </g>
  </g>
  <g s:type="split" transform="translate(32,108.5)" s:width="5" s:height="40" id="cell_$split$,5,6,7,8,">
    <rect width="5" height="80" class="splitjoinBody" s:generic="body"/>
    <s:alias val="$_split_"/>
    <g s:x="0" s:y="20" s:pid="in"/>
    <g transform="translate(4,10)" s:x="4" s:y="10" s:pid="out0">
      <text x="5" y="-4">0</text>
    </g>
    <g transform="translate(4,30)" s:x="4" s:y="10" s:pid="out0">
      <text x="5" y="-4">1</text>
    </g>
    <g transform="translate(4,50)" s:x="4" s:y="10" s:pid="out0">
      <text x="5" y="-4">2</text>
    </g>
    <g transform="translate(4,70)" s:x="4" s:y="10" s:pid="out0">
      <text x="5" y="-4">3</text>
    </g>
  </g>
  <line x1="37" x2="54" y1="119" y2="119" class="net_5"/>
  <line x1="54" x2="54" y1="119" y2="74" class="net_5"/>
  <line x1="54" x2="215.5" y1="74" y2="74" class="net_5"/>
  <line x1="37" x2="54" y1="119" y2="119" class="net_5"/>
  <line x1="54" x2="54" y1="119" y2="109" class="net_5"/>
  <circle cx="54" cy="109" r="2" style="fill:#000" class="net_5"/>
  <line x1="54" x2="79" y1="109" y2="109" class="net_5"/>
  <line x1="37" x2="54" y1="119" y2="119" class="net_5"/>
  <line x1="54" x2="54" y1="119" y2="74" class="net_5"/>
  <line x1="54" x2="204" y1="74" y2="74" class="net_5"/>
  <line x1="204" x2="204" y1="74" y2="124" class="net_5"/>
  <circle cx="204" cy="74" r="2" style="fill:#000" class="net_5"/>
  <line x1="204" x2="217" y1="124" y2="124" class="net_5"/>
  <line x1="37" x2="54" y1="139" y2="139" class="net_6"/>
  <line x1="54" x2="54" y1="139" y2="124" class="net_6"/>
  <circle cx="54" cy="139" r="2" style="fill:#000" class="net_6"/>
  <line x1="54" x2="79" y1="124" y2="124" class="net_6"/>
  <line x1="37" x2="217" y1="139" y2="139" class="net_6"/>
  <line x1="37" x2="64" y1="159" y2="159" class="net_7"/>
  <line x1="64" x2="64" y1="159" y2="185" class="net_7"/>
  <line x1="64" x2="119" y1="185" y2="185" class="net_7"/>
  <line x1="119" x2="119" y1="185" y2="155" class="net_7"/>
  <circle cx="119" cy="185" r="2" style="fill:#000" class="net_7"/>
  <line x1="119" x2="144" y1="155" y2="155" class="net_7"/>
  <line x1="37" x2="64" y1="159" y2="159" class="net_7"/>
  <line x1="64" x2="64" y1="159" y2="185" class="net_7"/>
  <line x1="64" x2="217" y1="185" y2="185" class="net_7"/>
  <line x1="109" x2="129" y1="116.5" y2="116.5" class="net_10"/>
  <line x1="129" x2="129" y1="116.5" y2="170" class="net_10"/>
  <circle cx="129" cy="116.5" r="2" style="fill:#000" class="net_10"/>
  <line x1="129" x2="144" y1="170" y2="170" class="net_10"/>
  <line x1="109" x2="194" y1="116.5" y2="116.5" class="net_10"/>
  <line x1="194" x2="194" y1="116.5" y2="200" class="net_10"/>
  <line x1="194" x2="217" y1="200" y2="200" class="net_10"/>
  <line x1="37" x2="54" y1="179" y2="179" class="net_8"/>
  <line x1="54" x2="54" y1="179" y2="245" class="net_8"/>
  <line x1="54" x2="217" y1="245" y2="245" class="net_8"/>
  <line x1="174" x2="184" y1="162.5" y2="162.5" class="net_11"/>
  <line x1="184" x2="184" y1="162.5" y2="260" class="net_11"/>
  <line x1="184" x2="217" y1="260" y2="260" class="net_11"/>
  <line x1="310" x2="348" y1="32" y2="32" class="net_3"/>
  <line x1="348" x2="348" y1="32" y2="222.5" class="net_3"/>
  <line x1="348" x2="383" y1="222.5" y2="222.5" class="net_3"/>
  <line x1="310" x2="338" y1="97" y2="97" class="net_2"/>
  <line x1="338" x2="338" y1="97" y2="242.5" class="net_2"/>
  <line x1="338" x2="383" y1="242.5" y2="242.5" class="net_2"/>
  <line x1="299.5" x2="328" y1="162.5" y2="162.5" class="net_9,13,14,12"/>
  <line x1="328" x2="328" y1="162.5" y2="262.5" class="net_9,13,14,12"/>
  <line x1="328" x2="383" y1="262.5" y2="262.5" class="net_9,13,14,12"/>
  <line x1="310" x2="383" y1="282.5" y2="282.5" class="net_4"/>
  <line x1="414" x2="562" y1="222.5" y2="222.5" class="net_5,6,7,8"/>
  <line x1="414" x2="537" y1="222.5" y2="222.5" class="net_5,6,7,8"/>
  <line x1="537" x2="537" y1="222.5" y2="305" class="net_5,6,7,8"/>
  <line x1="537" x2="12" y1="305" y2="305" class="net_5,6,7,8"/>
  <line x1="12" x2="12" y1="305" y2="129" class="net_5,6,7,8"/>
  <circle cx="537" cy="222.5" r="2" style="fill:#000" class="net_5,6,7,8"/>
  <line x1="12" x2="32" y1="129" y2="129" class="net_5,6,7,8"/>
  <line x1="240.5" x2="267" y1="74" y2="74" class="net_9"/>
  <line x1="267" x2="267" y1="74" y2="152.5" class="net_9"/>
  <line x1="267" x2="293.5" y1="152.5" y2="152.5" class="net_9"/>
  <line x1="247" x2="257" y1="131.5" y2="131.5" class="net_13"/>
  <line x1="257" x2="257" y1="131.5" y2="172.5" class="net_13"/>
  <line x1="257" x2="293.5" y1="172.5" y2="172.5" class="net_13"/>
  <line x1="247" x2="293.5" y1="192.5" y2="192.5" class="net_14"/>
  <line x1="247" x2="294" y1="252.5" y2="252.5" class="net_12"/>
  <line x1="294" x2="294" y1="252.5" y2="213" class="net_12"/>
</svg>
